<svg width="41" height="41" viewBox="0 0 41 41" fill="none" xmlns="http://www.w3.org/2000/svg">
<path d="M29.122 0.589844C32.033 0.589844 34.8246 1.7462 36.883 3.80453C38.9413 5.86285 40.0977 8.65454 40.0977 11.5655V29.1264C40.0977 32.0374 38.9413 34.829 36.883 36.8874C34.8246 38.9457 32.033 40.1021 29.122 40.1021H11.5611C8.65015 40.1021 5.85846 38.9457 3.80013 36.8874C1.74181 34.829 0.585449 32.0374 0.585449 29.1264V11.5655C0.585449 8.65454 1.74181 5.86285 3.80013 3.80453C5.85846 1.7462 8.65015 0.589844 11.5611 0.589844H29.122ZM20.3416 11.5655C18.0128 11.5655 15.7795 12.4905 14.1328 14.1372C12.4861 15.7839 11.5611 18.0172 11.5611 20.3459C11.5611 22.6747 12.4861 24.908 14.1328 26.5547C15.7795 28.2014 18.0128 29.1264 20.3416 29.1264C22.6703 29.1264 24.9036 28.2014 26.5503 26.5547C28.197 24.908 29.122 22.6747 29.122 20.3459C29.122 18.0172 28.197 15.7839 26.5503 14.1372C24.9036 12.4905 22.6703 11.5655 20.3416 11.5655ZM20.3416 15.9557C21.5059 15.9557 22.6226 16.4182 23.4459 17.2416C24.2693 18.0649 24.7318 19.1816 24.7318 20.3459C24.7318 21.5103 24.2693 22.627 23.4459 23.4503C22.6226 24.2737 21.5059 24.7362 20.3416 24.7362C19.1772 24.7362 18.0605 24.2737 17.2372 23.4503C16.4139 22.627 15.9513 21.5103 15.9513 20.3459C15.9513 19.1816 16.4139 18.0649 17.2372 17.2416C18.0605 16.4182 19.1772 15.9557 20.3416 15.9557ZM30.2196 8.27277C29.6374 8.27277 29.0791 8.50405 28.6674 8.91571C28.2558 9.32738 28.0245 9.88571 28.0245 10.4679C28.0245 11.0501 28.2558 11.6084 28.6674 12.0201C29.0791 12.4317 29.6374 12.663 30.2196 12.663C30.8018 12.663 31.3601 12.4317 31.7718 12.0201C32.1835 11.6084 32.4147 11.0501 32.4147 10.4679C32.4147 9.88571 32.1835 9.32738 31.7718 8.91571C31.3601 8.50405 30.8018 8.27277 30.2196 8.27277Z" fill="white"/>
</svg>
