<svg width="36" height="36" viewBox="0 0 36 36" fill="none" xmlns="http://www.w3.org/2000/svg">
<g clip-path="url(#clip0_1599_2111)">
<path d="M32.2683 1.6056H3.73172C3.08424 1.59901 2.4606 1.84954 1.99762 2.30223C1.53465 2.75491 1.27017 3.37277 1.26221 4.02023V32.6721C1.27161 33.3186 1.53672 33.935 1.99954 34.3865C2.46236 34.838 3.08518 35.0878 3.73172 35.0812H32.2683C32.9158 35.0864 33.5391 34.835 34.0018 34.382C34.4645 33.929 34.7292 33.3113 34.7378 32.6638V4.012C34.7263 3.36644 34.4604 2.75152 33.998 2.30092C33.5356 1.85031 32.914 1.60043 32.2683 1.6056ZM11.1869 30.1422H6.2177V14.1535H11.1869V30.1422ZM8.71739 11.9748C8.14745 11.9753 7.59015 11.8068 7.11599 11.4906C6.64184 11.1743 6.27213 10.7246 6.05365 10.1982C5.83517 9.67175 5.77772 9.09238 5.88858 8.53332C5.99943 7.97426 6.27361 7.46064 6.67643 7.05744C7.07925 6.65423 7.59261 6.37956 8.15156 6.26817C8.71052 6.15678 9.28995 6.21368 9.81656 6.43166C10.3432 6.64964 10.7933 7.01892 11.11 7.49277C11.4267 7.96662 11.5957 8.52376 11.5957 9.09371C11.595 9.47252 11.5196 9.84748 11.3738 10.1971C11.228 10.5467 11.0147 10.8642 10.7461 11.1313C10.4774 11.3984 10.1588 11.6099 9.80833 11.7537C9.45786 11.8975 9.08249 11.9708 8.70367 11.9693L8.71739 11.9748ZM29.7988 30.1422H24.8296V22.3632C24.8296 20.5111 24.7967 18.1266 22.2476 18.1266C19.6985 18.1266 19.265 20.1462 19.265 22.2425V30.1422H14.304V14.1535H19.0674V16.3486H19.1333C19.7973 15.0919 21.4162 13.7666 23.8336 13.7666C28.8659 13.7556 29.7988 17.0675 29.7988 21.3617V30.1422Z" fill="white"/>
</g>
<defs>
<clipPath id="clip0_1599_2111">
<rect width="35.122" height="35.122" fill="white" transform="translate(0.438965 0.78125)"/>
</clipPath>
</defs>
</svg>
