<svg width="16" height="20" viewBox="0 0 16 20" fill="none" xmlns="http://www.w3.org/2000/svg">
<path d="M8.07156 -0.0078125C3.97187 -0.0078125 0.5 3.48375 0.5 7.62C0.5 11.9513 4.52406 16.3806 7.23094 19.4937C7.24125 19.5063 7.67877 19.9922 8.21781 19.9922H8.26565C8.80471 19.9922 9.23908 19.5063 9.25 19.4937C11.7903 16.5734 15.5 11.7584 15.5 7.62C15.5 3.48375 12.7919 -0.0078125 8.07156 -0.0078125ZM8.32219 18.6553C8.30031 18.6772 8.26842 18.7016 8.24029 18.7219C8.21154 18.7022 8.18029 18.6772 8.15719 18.6553L7.83029 18.2794C5.26406 15.3353 1.75 11.3038 1.75 7.62C1.75 4.16281 4.645 1.24188 8.07156 1.24188C12.3397 1.24188 14.25 4.445 14.25 7.62C14.25 10.4166 12.2553 14.1297 8.32219 18.6553ZM8.02186 3.77688C5.95092 3.77688 4.27186 5.45594 4.27186 7.52688C4.27186 9.59781 5.95092 11.2769 8.02186 11.2769C10.0928 11.2769 11.7719 9.59781 11.7719 7.52688C11.7719 5.45594 10.0928 3.77688 8.02186 3.77688ZM8.02186 10.0269C6.64342 10.0269 5.49309 8.87813 5.49309 7.49938C5.49309 6.12094 6.61465 4.99938 7.99309 4.99938C9.37246 4.99938 10.4931 6.12094 10.4931 7.49938C10.4937 8.87813 9.40123 10.0269 8.02186 10.0269Z" fill="#31A5DE"/>
</svg>
