<svg width="45" height="45" viewBox="0 0 45 45" fill="none" xmlns="http://www.w3.org/2000/svg">
<path d="M22.6585 0.480469C10.5853 0.480469 0.707275 10.3366 0.707275 22.4756C0.707275 33.4512 8.74142 42.561 19.2341 44.2073V28.8415H13.6585V22.4756H19.2341V17.6244C19.2341 12.1146 22.5048 9.08535 27.5317 9.08535C29.9244 9.08535 32.4268 9.50242 32.4268 9.50242V14.9244H29.6609C26.939 14.9244 26.0829 16.6146 26.0829 18.3488V22.4756H32.1853L31.1975 28.8415H26.0829V44.2073C31.2556 43.3904 35.9658 40.7511 39.3632 36.766C42.7607 32.7808 44.6215 27.7124 44.6097 22.4756C44.6097 10.3366 34.7317 0.480469 22.6585 0.480469Z" fill="white"/>
</svg>
