<svg width="41" height="41" viewBox="0 0 41 41" fill="none" xmlns="http://www.w3.org/2000/svg">
<path d="M21.7812 3.84375C21.7812 3.50394 21.6463 3.17805 21.406 2.93777C21.1657 2.69749 20.8398 2.5625 20.5 2.5625C20.1602 2.5625 19.8343 2.69749 19.594 2.93777C19.3537 3.17805 19.2188 3.50394 19.2188 3.84375V5.125H14.0938C13.0743 5.125 12.0967 5.52997 11.3758 6.25081C10.655 6.97165 10.25 7.94932 10.25 8.96875V16.6562C10.25 17.6757 10.655 18.6533 11.3758 19.3742C12.0967 20.095 13.0743 20.5 14.0938 20.5H26.9062C27.9257 20.5 28.9033 20.095 29.6242 19.3742C30.345 18.6533 30.75 17.6757 30.75 16.6562V8.96875C30.75 7.94932 30.345 6.97165 29.6242 6.25081C28.9033 5.52997 27.9257 5.125 26.9062 5.125H21.7812V3.84375ZM12.8125 8.96875C12.8125 8.62894 12.9475 8.30305 13.1878 8.06277C13.4281 7.82249 13.7539 7.6875 14.0938 7.6875H26.9062C27.2461 7.6875 27.572 7.82249 27.8122 8.06277C28.0525 8.30305 28.1875 8.62894 28.1875 8.96875V16.6562C28.1875 16.9961 28.0525 17.3219 27.8122 17.5622C27.572 17.8025 27.2461 17.9375 26.9062 17.9375H14.0938C13.7539 17.9375 13.4281 17.8025 13.1878 17.5622C12.9475 17.3219 12.8125 16.9961 12.8125 16.6562V8.96875ZM10.25 28.1875C10.25 27.8477 10.385 27.5218 10.6253 27.2815C10.8656 27.0412 11.1914 26.9062 11.5312 26.9062H29.4688C29.8086 26.9062 30.1345 27.0412 30.3747 27.2815C30.615 27.5218 30.75 27.8477 30.75 28.1875V29.0844C30.75 31.5111 29.7096 33.1229 27.9902 34.194C26.1939 35.3138 23.5827 35.875 20.5 35.875C17.4378 35.875 14.8266 35.3164 13.0226 34.194C11.2955 33.1203 10.25 31.5059 10.25 29.0844V28.1875ZM11.5312 24.3438C10.5118 24.3438 9.53415 24.7487 8.81331 25.4696C8.09247 26.1904 7.6875 27.1681 7.6875 28.1875V29.0844C7.6875 32.4284 9.225 34.85 11.6696 36.3696C14.0399 37.843 17.1944 38.4375 20.5 38.4375C23.8236 38.4375 26.978 37.8456 29.3457 36.3696C31.7904 34.85 33.3125 32.4233 33.3125 29.0844V28.1875C33.3125 27.1681 32.9075 26.1904 32.1867 25.4696C31.4658 24.7487 30.4882 24.3438 29.4688 24.3438H11.5312ZM18.5781 12.8125C18.5781 13.3222 18.3756 13.811 18.0152 14.1715C17.6548 14.5319 17.166 14.7344 16.6562 14.7344C16.1465 14.7344 15.6577 14.5319 15.2973 14.1715C14.9369 13.811 14.7344 13.3222 14.7344 12.8125C14.7344 12.3028 14.9369 11.814 15.2973 11.4535C15.6577 11.0931 16.1465 10.8906 16.6562 10.8906C17.166 10.8906 17.6548 11.0931 18.0152 11.4535C18.3756 11.814 18.5781 12.3028 18.5781 12.8125ZM24.3438 14.7344C24.8535 14.7344 25.3423 14.5319 25.7027 14.1715C26.0631 13.811 26.2656 13.3222 26.2656 12.8125C26.2656 12.3028 26.0631 11.814 25.7027 11.4535C25.3423 11.0931 24.8535 10.8906 24.3438 10.8906C23.834 10.8906 23.3452 11.0931 22.9848 11.4535C22.6244 11.814 22.4219 12.3028 22.4219 12.8125C22.4219 13.3222 22.6244 13.811 22.9848 14.1715C23.3452 14.5319 23.834 14.7344 24.3438 14.7344Z" fill="white"/>
</svg>
