<svg width="60" height="27" viewBox="0 0 60 27" fill="none" xmlns="http://www.w3.org/2000/svg">
<path d="M8.09475 10.548C7.34396 10.5387 6.60124 10.7036 5.925 11.0299C5.24875 11.3562 4.65744 11.8349 4.19756 12.4285V6.62778C4.19756 6.42414 4.11667 6.22884 3.97268 6.08485C3.82868 5.94086 3.63339 5.85997 3.42975 5.85997H0.767812C0.564176 5.85996 0.36888 5.94086 0.224887 6.08485C0.0808943 6.22884 0 6.42414 0 6.62778L0 23.2715C2.48621e-05 23.4751 0.0809301 23.6704 0.22492 23.8144C0.36891 23.9583 0.564192 24.0392 0.767812 24.0392H3.42975C3.63337 24.0392 3.82865 23.9583 3.97264 23.8144C4.11663 23.6704 4.19754 23.4751 4.19756 23.2715V22.5132C5.28769 23.767 6.62325 24.3666 8.09503 24.3666C11.3388 24.3666 13.9002 21.9137 13.9002 17.4438C13.8999 13.1372 11.3652 10.548 8.09475 10.548ZM6.70463 20.6596C5.80528 20.6596 4.71516 20.1963 4.19728 19.4877V15.454C4.71553 14.7454 5.80528 14.2548 6.70463 14.2548C8.36719 14.2548 9.62091 15.4812 9.62091 17.4435C9.62091 19.4332 8.36719 20.6596 6.70463 20.6596ZM21.3645 15.1254C21.0419 15.1254 20.7265 15.221 20.4582 15.4003C20.19 15.5795 19.9809 15.8343 19.8574 16.1324C19.734 16.4304 19.7017 16.7584 19.7646 17.0749C19.8275 17.3913 19.9829 17.682 20.211 17.9101C20.4392 18.1382 20.7298 18.2936 21.0463 18.3565C21.3627 18.4195 21.6907 18.3872 21.9888 18.2637C22.2868 18.1402 22.5416 17.9312 22.7208 17.6629C22.9001 17.3946 22.9958 17.0793 22.9958 16.7566C22.9958 16.324 22.8239 15.9091 22.518 15.6032C22.212 15.2972 21.7971 15.1254 21.3645 15.1254ZM25.6834 6.69171V2.50475C25.9496 2.39381 26.1692 2.19407 26.3047 1.93949C26.4403 1.68491 26.4835 1.39123 26.4269 1.10841C26.3703 0.825593 26.2175 0.571107 25.9945 0.388252C25.7714 0.205397 25.4919 0.105469 25.2035 0.105469C24.9151 0.105469 24.6356 0.205397 24.4125 0.388252C24.1895 0.571107 24.0367 0.825593 23.9801 1.10841C23.9236 1.39123 23.9667 1.68491 24.1023 1.93949C24.2378 2.19407 24.4574 2.39381 24.7237 2.50475V6.69171C22.0956 6.817 19.6207 7.96518 17.8279 9.8909C16.0351 11.8166 15.0665 14.3671 15.1292 16.9975C15.1918 19.6278 16.2808 22.1293 18.1632 23.9675C20.0457 25.8056 22.5724 26.8347 25.2035 26.8347C27.8346 26.8347 30.3613 25.8056 32.2438 23.9675C34.1263 22.1293 35.2152 19.6278 35.2778 16.9975C35.3405 14.3671 34.3719 11.8166 32.5791 9.8909C30.7863 7.96518 28.3115 6.817 25.6834 6.69171ZM33.7452 16.7574C33.7452 19.6196 29.921 21.94 25.2035 21.94C20.486 21.94 16.6618 19.6196 16.6618 16.7574C16.6618 13.8951 20.4861 11.5748 25.2035 11.5748C29.9209 11.5748 33.7452 13.8947 33.7452 16.7569V16.7574ZM29.0424 18.3886C29.3651 18.3886 29.6805 18.2929 29.9487 18.1137C30.217 17.9345 30.4261 17.6797 30.5495 17.3816C30.673 17.0835 30.7053 16.7556 30.6423 16.4391C30.5794 16.1227 30.424 15.832 30.1959 15.6039C29.9678 15.3758 29.6771 15.2204 29.3607 15.1575C29.0442 15.0945 28.7163 15.1268 28.4182 15.2503C28.1201 15.3738 27.8653 15.5828 27.6861 15.8511C27.5069 16.1194 27.4112 16.4347 27.4112 16.7574C27.4112 17.19 27.5831 17.6049 27.889 17.9108C28.1949 18.2167 28.6098 18.3885 29.0424 18.3885V18.3886ZM54.4406 15.4812C53.0505 15.2359 52.3418 15.1269 52.3418 14.5545C52.3418 14.0367 53.0232 13.6279 54.0045 13.6279C55.1493 13.6363 56.269 13.9642 57.2374 14.5748C57.322 14.6291 57.4166 14.6662 57.5156 14.6839C57.6146 14.7017 57.7162 14.6998 57.8144 14.6783C57.9127 14.6568 58.0058 14.6162 58.0883 14.5587C58.1709 14.5012 58.2413 14.4281 58.2956 14.3434C58.3022 14.3331 58.3085 14.3227 58.3144 14.3122L59.1217 12.9166C59.2224 12.7422 59.2506 12.5353 59.2004 12.3403C59.1501 12.1453 59.0253 11.9778 58.8529 11.8738C57.3797 10.9934 55.6928 10.5349 53.9766 10.5484C50.3244 10.5484 48.3348 12.5653 48.3348 14.882C48.3348 18.2891 51.4965 18.8067 53.7313 19.1609C54.985 19.379 55.9935 19.5698 55.9935 20.1967C55.9935 20.7967 55.4757 21.2052 54.2216 21.2052C52.9511 21.2052 51.3159 20.6218 50.2257 19.9321C50.1406 19.8777 50.0456 19.8405 49.9461 19.8228C49.8467 19.8051 49.7447 19.8071 49.646 19.8288C49.5473 19.8505 49.4539 19.8914 49.371 19.9492C49.2882 20.007 49.2175 20.0805 49.1631 20.1657C49.1598 20.1707 49.1567 20.1758 49.1537 20.181L48.1974 21.7646C48.0956 21.9344 48.0631 22.1369 48.1066 22.33C48.1501 22.5232 48.2662 22.6922 48.431 22.802C49.8582 23.7676 51.9619 24.3669 54.0036 24.3669C57.7919 24.3669 59.9995 22.5135 59.9995 20.0061C60 16.4352 56.6753 15.8901 54.4406 15.4812ZM45.4474 21.18C45.397 20.9913 45.2768 20.8288 45.111 20.7254C44.9453 20.622 44.7464 20.5855 44.5548 20.6233C44.4263 20.6472 44.2959 20.6594 44.1653 20.6596C43.4294 20.6596 42.9934 20.0872 42.9934 19.3242V14.5273H44.9011C45.1035 14.5273 45.2977 14.4468 45.4408 14.3037C45.5839 14.1605 45.6643 13.9664 45.6643 13.7639V11.6385C45.6643 11.4361 45.5839 11.2419 45.4408 11.0988C45.2977 10.9556 45.1035 10.8752 44.9011 10.8751H42.9932V8.04087C42.9932 7.8384 42.9128 7.64423 42.7696 7.50106C42.6264 7.35789 42.4322 7.27746 42.2298 7.27746H39.5866C39.3841 7.27746 39.1899 7.35789 39.0468 7.50106C38.9036 7.64423 38.8232 7.8384 38.8232 8.04087V10.8751H37.4062C37.306 10.8751 37.2067 10.8949 37.1141 10.9332C37.0215 10.9716 36.9373 11.0278 36.8664 11.0987C36.7956 11.1696 36.7393 11.2538 36.701 11.3464C36.6626 11.439 36.6428 11.5383 36.6428 11.6385V13.7639C36.6428 13.8642 36.6626 13.9635 36.701 14.0561C36.7393 14.1487 36.7956 14.2329 36.8664 14.3037C36.9373 14.3746 37.0215 14.4309 37.1141 14.4692C37.2067 14.5076 37.306 14.5273 37.4062 14.5273H38.8233V20.4961C38.8233 23.0308 40.2678 24.3663 42.9389 24.3663C44.0811 24.3663 44.9436 24.1601 45.5264 23.8557C45.68 23.7761 45.802 23.6467 45.8726 23.4887C45.9432 23.3307 45.9581 23.1535 45.915 22.9859L45.4474 21.18Z" fill="white"/>
</svg>
