<svg width="42" height="42" viewBox="0 0 42 42" fill="none" xmlns="http://www.w3.org/2000/svg">
<path d="M8.30585 0.397392C8.5151 0.505795 8.69052 0.66962 8.81297 0.87097C8.93541 1.07232 9.00016 1.30345 9.00014 1.53911C9.00014 3.54482 9.691 4.70711 10.4864 5.85739C10.5619 5.96711 10.6407 6.07911 10.723 6.19339C11.4824 7.26996 12.4287 8.60711 12.4287 10.5391C12.4287 11.327 12.2735 12.1073 11.972 12.8352C11.6705 13.5632 11.2285 14.2246 10.6714 14.7817C10.1142 15.3389 9.45276 15.7809 8.72481 16.0824C7.99686 16.3839 7.21664 16.5391 6.42871 16.5391C5.64078 16.5391 4.86056 16.3839 4.13261 16.0824C3.40466 15.7809 2.74322 15.3389 2.18607 14.7817C1.62892 14.2246 1.18696 13.5632 0.885434 12.8352C0.583905 12.1073 0.428711 11.327 0.428711 10.5391C0.428711 9.12825 0.572711 7.59054 1.54128 5.87625C2.48757 4.20139 4.15728 2.47168 6.97557 0.48825C7.16781 0.352933 7.39347 0.272914 7.62801 0.256895C7.86255 0.240876 8.097 0.28947 8.30585 0.397392ZM12.8093 6.20882C14.3004 5.23585 16.0186 4.66661 17.7957 4.5568C19.5728 4.44699 21.348 4.80037 22.9475 5.58236C24.5471 6.36435 25.9163 7.54817 26.9211 9.01801C27.926 10.4878 28.5321 12.1934 28.6801 13.9677H24.0019C22.2969 13.9677 20.6618 14.645 19.4562 15.8506C18.2506 17.0562 17.5733 18.6913 17.5733 20.3962V25.0763C16.3794 24.9766 15.2122 24.6691 14.1241 24.1677C14.0967 25.006 14.0384 25.9214 13.9527 26.8814C15.116 27.3118 16.3355 27.5717 17.5733 27.6528V31.5391C17.5733 33.2441 18.2506 34.8792 19.4562 36.0848C20.6618 37.2904 22.2969 37.9677 24.0019 37.9677H35.1447C36.8497 37.9677 38.4848 37.2904 39.6904 36.0848C40.896 34.8792 41.5733 33.2441 41.5733 31.5391V20.3962C41.5733 18.6913 40.896 17.0562 39.6904 15.8506C38.4848 14.645 36.8497 13.9677 35.1447 13.9677H31.2601C31.1107 11.7259 30.3764 9.56241 29.1304 7.69279C27.8844 5.82318 26.1703 4.3127 24.1587 3.31188C22.1472 2.31105 19.9085 1.85482 17.6657 1.98863C15.423 2.12244 13.2544 2.84163 11.3761 4.07454C11.5304 4.33854 11.7053 4.60253 11.899 4.88196C11.9641 4.97911 12.0384 5.08425 12.1219 5.19739C12.3241 5.48196 12.5659 5.81796 12.8093 6.20882ZM35.1464 16.5391C36.1694 16.5391 37.1505 16.9455 37.8738 17.6688C38.5972 18.3922 39.0036 19.3733 39.0036 20.3962V31.5391C39.0036 32.5621 38.5972 33.5432 37.8738 34.2665C37.1505 34.9899 36.1694 35.3963 35.1464 35.3963H24.0036C22.9806 35.3963 21.9995 34.9899 21.2762 34.2665C20.5528 33.5432 20.1464 32.5621 20.1464 31.5391V27.5688C22.9389 27.1919 25.5304 25.9086 27.5227 23.9159C29.515 21.9233 30.798 19.3316 31.1744 16.5391H35.1464ZM20.1464 24.9683V20.3962C20.1464 19.3733 20.5528 18.3922 21.2762 17.6688C21.9995 16.9455 22.9806 16.5391 24.0036 16.5391H28.5739C28.2169 18.6449 27.2138 20.5876 25.7035 22.0979C24.1932 23.6082 22.2523 24.6113 20.1464 24.9683ZM0.428711 23.0311C0.428711 21.3117 0.565854 19.1774 1.31328 17.4185C2.74128 18.4814 4.51214 19.1105 6.42871 19.1105C8.27335 19.1133 10.0693 18.5184 11.5476 17.4151C12.2933 19.1757 12.4287 21.3134 12.4287 23.0311C12.4287 25.882 11.9761 30.2482 11.1464 33.9168C10.735 35.7477 10.2104 37.4808 9.56414 38.7854C9.24357 39.4368 8.85785 40.0488 8.38643 40.5168C7.91157 40.9865 7.255 41.3963 6.43214 41.3963C5.60928 41.3963 4.95442 40.9865 4.47957 40.5151C4.00814 40.0488 3.62242 39.4368 3.30014 38.7871C2.65385 37.4808 2.12928 35.7477 1.71443 33.9185C0.882997 30.2483 0.428711 25.882 0.428711 23.0328" fill="white"/>
</svg>
