<svg width="37" height="37" viewBox="0 0 37 37" fill="none" xmlns="http://www.w3.org/2000/svg">
<path d="M2.21457 34.843L14.2134 22.8442M29.3231 17.5085L25.7314 28.2856C25.6738 28.4579 25.5756 28.6139 25.4449 28.7402C25.3143 28.8666 25.1552 28.9596 24.981 29.0114L2.96309 35.5576C2.76472 35.6165 2.554 35.6199 2.35385 35.5674C2.1537 35.5148 1.97179 35.4084 1.82793 35.2597C1.68406 35.111 1.58374 34.9256 1.53789 34.7238C1.49204 34.5221 1.50241 34.3116 1.56788 34.1153L8.71738 12.6705C8.76862 12.5166 8.85238 12.3754 8.96299 12.2567C9.0736 12.1379 9.20846 12.0444 9.35842 11.9824L19.5152 7.80051C19.7216 7.71523 19.9488 7.693 20.1679 7.73662C20.387 7.78024 20.5883 7.88775 20.7463 8.04561L29.0497 16.3509C29.1983 16.4994 29.3026 16.6864 29.3508 16.8909C29.3991 17.0953 29.3895 17.3092 29.3231 17.5085Z" stroke="white" stroke-width="1.5" stroke-linecap="round" stroke-linejoin="round"/>
<path d="M30.6975 2.00075L35.1546 6.45788C35.4896 6.77832 35.7571 7.16244 35.9416 7.5877C36.126 8.01295 36.2237 8.47077 36.2288 8.93428C36.234 9.39779 36.1464 9.85766 35.9714 10.2869C35.7964 10.7161 35.5374 11.1061 35.2096 11.4338C34.8819 11.7616 34.4919 12.0206 34.0627 12.1956C33.6335 12.3706 33.1736 12.4582 32.7101 12.453C32.2466 12.4479 31.7888 12.3502 31.3635 12.1658C30.9383 11.9813 30.5541 11.7138 30.2337 11.3788L25.7747 6.92169C25.1458 6.26433 24.7992 5.38685 24.8093 4.47715C24.8194 3.56746 25.1852 2.69786 25.8285 2.05457C26.4718 1.41127 27.3414 1.04543 28.2511 1.03537C29.1608 1.02531 30.0401 1.37184 30.6975 2.00075Z" fill="white" stroke="white" stroke-width="1.5" stroke-linecap="round" stroke-linejoin="round"/>
<path d="M18.2125 18.8439C17.9516 18.5737 17.6395 18.3583 17.2945 18.2101C16.9494 18.0619 16.5783 17.9838 16.2028 17.9806C15.8273 17.9773 15.4549 18.0489 15.1073 18.1911C14.7597 18.3333 14.444 18.5433 14.1784 18.8088C13.9129 19.0743 13.7029 19.3901 13.5607 19.7377C13.4185 20.0852 13.3469 20.4577 13.3502 20.8332C13.3535 21.2087 13.4315 21.5798 13.5797 21.9248C13.7279 22.2699 13.9434 22.5819 14.2135 22.8428C14.7469 23.358 15.4613 23.6431 16.2028 23.6366C16.9443 23.6302 17.6537 23.3327 18.178 22.8084C18.7024 22.284 18.9998 21.5747 19.0062 20.8332C19.0127 20.0916 18.7276 19.3773 18.2125 18.8439Z" stroke="white" stroke-width="1.5" stroke-linecap="round" stroke-linejoin="round"/>
</svg>
