<svg width="47" height="48" viewBox="0 0 47 48" fill="none" xmlns="http://www.w3.org/2000/svg">
<path d="M23.625 46.625C36.1204 46.625 46.25 36.4954 46.25 24C46.25 11.5046 36.1204 1.375 23.625 1.375C11.1296 1.375 1 11.5046 1 24C1 36.4954 11.1296 46.625 23.625 46.625Z" stroke="white" stroke-width="1.31159" stroke-linecap="round" stroke-linejoin="round"/>
<path d="M21.883 18.3148L31.1668 16.457L29.3091 25.7408C29.1146 26.7139 28.6365 27.6076 27.9351 28.3095C27.2337 29.0114 26.3402 29.49 25.3673 29.6851L16.0835 31.5404L17.9413 22.2566C18.1362 21.284 18.6144 20.3908 19.3158 19.6894C20.0172 18.988 20.9104 18.5097 21.883 18.3148Z" stroke="white" stroke-width="1.31159" stroke-linecap="round" stroke-linejoin="round"/>
</svg>
