<svg width="47" height="48" viewBox="0 0 47 48" fill="none" xmlns="http://www.w3.org/2000/svg">
<path d="M23.5 0.824219C36.479 0.824219 47 11.3452 47 24.3242C47 37.3033 36.479 47.8242 23.5 47.8242C10.521 47.8242 0 37.3033 0 24.3242C0 11.3452 10.521 0.824219 23.5 0.824219ZM23.5 4.10247C18.1369 4.10247 12.9934 6.23297 9.20106 10.0253C5.40875 13.8176 3.27825 18.9611 3.27825 24.3242C3.27825 29.6874 5.40875 34.8308 9.20106 38.6232C12.9934 42.4155 18.1369 44.546 23.5 44.546C28.8631 44.546 34.0066 42.4155 37.7989 38.6232C41.5912 34.8308 43.7217 29.6874 43.7217 24.3242C43.7217 18.9611 41.5912 13.8176 37.7989 10.0253C34.0066 6.23297 28.8631 4.10247 23.5 4.10247ZM28.3128 9.02102C29.8406 9.59864 31.2693 10.4105 32.5475 11.4274C32.8405 11.653 33.1248 11.8935 33.4006 12.1489C33.4507 12.1927 33.4992 12.2397 33.5462 12.2899C34.317 13.0019 35.0173 13.8033 35.6377 14.6634L35.8962 15.0088C36.0451 15.2313 36.1892 15.4585 36.3286 15.6903C36.4414 15.8721 36.5503 16.0569 36.6553 16.2449C36.7744 16.4549 36.8887 16.6687 36.9984 16.8865C37.1206 17.1293 37.2373 17.3768 37.3485 17.6291C37.4261 17.8006 37.5131 17.9769 37.5835 18.1602C37.7543 18.5863 37.9086 19.0187 38.0465 19.4574L38.1687 19.9039C38.4044 20.7407 38.5733 21.5948 38.674 22.4583C38.6904 22.6134 38.7139 22.7779 38.7256 22.9307C38.7742 23.4367 38.8001 23.9459 38.8032 24.4582C38.8026 25.4593 38.7105 26.4583 38.5282 27.4427L38.4342 27.9526C38.3402 28.3976 38.2306 28.8362 38.1052 29.2686C36.9091 28.7211 35.5038 27.915 35.1372 27.0291C34.4698 25.4311 32.6932 24.6321 31.9694 22.5735C30.7779 19.166 32.3595 19.2553 32.5804 17.1403C32.6838 16.1486 31.9694 15.9418 31.027 16.346C28.8274 17.2695 28.0825 16.9147 27.6383 15.2579C27.1942 13.6059 27.6383 13.1453 27.6383 13.1453C26.139 13.3098 26.0826 11.4838 26.8605 11.0232C27.401 10.713 27.8592 9.76127 28.3128 9.02102ZM22.0289 19.1472C23.4154 18.5127 24.6961 18.2847 24.5269 17.1943C24.3624 16.1157 23.9723 15.312 21.8057 15.312C19.639 15.312 20.5837 18.2847 18.8071 16.5105C17.0305 14.748 19.1948 15.2039 20.0831 14.802C20.9737 14.3978 21.862 12.7411 20.3063 12.6236C18.753 12.5131 19.0843 13.3098 17.8623 12.8586C16.6403 12.398 16.0857 14.4542 15.3055 14.1675C14.7932 13.9748 13.4185 12.9173 12.5067 11.8763C10.6461 13.4946 9.17318 15.5104 8.1968 17.7748C8.46235 20.8462 10.0862 22.4583 10.0862 22.4583C10.0862 22.4583 10.9204 24.4582 15.9212 26.9163C15.9212 26.9163 16.8612 26.9727 15.752 25.8329C14.6428 24.6885 13.4185 23.2597 14.8073 22.5194C16.1938 21.7698 16.5863 21.8332 16.92 23.208C17.2513 24.5804 18.3652 23.772 18.4733 22.4583C18.5861 21.1494 20.64 19.7817 22.0289 19.1472ZM20.9714 26.0538C23.3637 26.0538 23.1404 26.7988 25.0298 28.4626C26.9169 30.117 25.9181 31.7737 24.9711 33.0333C24.0287 34.2882 23.1945 35.7123 22.7503 38.2926C22.3038 40.8635 21.1383 39.0305 20.7528 38.4031C20.3627 37.7709 19.7517 37.2022 19.9209 34.5726C20.0854 31.9453 18.3065 33.4916 17.6978 30.0606C17.0868 26.6343 18.5861 26.0562 20.9737 26.0562M32.6697 28.3216C33.3065 27.915 34.8317 28.9749 34.5027 30.0911C34.1666 31.2074 33.1138 30.5776 32.5851 30.0911C32.0564 29.607 32.0281 28.7211 32.6697 28.3216Z" fill="white"/>
</svg>
