<svg width="52" height="52" viewBox="0 0 52 52" fill="none" xmlns="http://www.w3.org/2000/svg">
<g clip-path="url(#clip0_2535_14712)">
<path d="M16.4375 21.543H19.625V24.7305H16.4375V21.543ZM22.8125 21.543H35.5625V24.7305H22.8125V21.543ZM16.4375 29.5117H19.625V32.6992H16.4375V29.5117ZM16.4375 37.4805H19.625V40.668H16.4375V37.4805Z" fill="white"/>
<path d="M11.6562 45.4492V11.9805H16.4375V16.7617H35.5625V11.9805H40.3438V24.7305H43.5312V11.9805C43.5312 11.1351 43.1954 10.3243 42.5977 9.72657C41.9999 9.12879 41.1891 8.79297 40.3438 8.79297H35.5625V7.19922C35.5625 6.35384 35.2267 5.54309 34.6289 4.94532C34.0311 4.34754 33.2204 4.01172 32.375 4.01172H19.625C18.7796 4.01172 17.9689 4.34754 17.3711 4.94532C16.7733 5.54309 16.4375 6.35384 16.4375 7.19922V8.79297H11.6562C10.8109 8.79297 10.0001 9.12879 9.40235 9.72657C8.80457 10.3243 8.46875 11.1351 8.46875 11.9805V45.4492C8.46875 46.2946 8.80457 47.1054 9.40235 47.7031C10.0001 48.3009 10.8109 48.6367 11.6562 48.6367H26V45.4492H11.6562ZM19.625 7.19922H32.375V13.5742H19.625V7.19922Z" fill="white"/>
<path d="M29.1875 31.1044V34.9502C30.1885 33.2765 31.611 31.8946 33.313 30.9425C35.015 29.9904 36.937 29.5014 38.887 29.5242C40.8371 29.547 42.7471 30.081 44.4263 31.0726C46.1055 32.0643 47.4953 33.4791 48.4568 35.1758C49.4184 36.8725 49.9181 38.7917 49.9061 40.7418C49.8942 42.692 49.3709 44.6049 48.3885 46.2896C47.4062 47.9743 45.9992 49.372 44.3079 50.3429C42.6166 51.3139 40.7002 51.8243 38.75 51.8232V48.6357C40.1871 48.6376 41.598 48.2508 42.8333 47.5163C44.0685 46.7818 45.0821 45.7269 45.7668 44.4633C46.4515 43.1998 46.7817 41.7746 46.7225 40.3387C46.6633 38.9027 46.2168 37.5096 45.4305 36.3067C44.6441 35.1038 43.5471 34.1359 42.2556 33.5056C40.9641 32.8752 39.5261 32.6059 38.094 32.7261C36.6619 32.8463 35.289 33.3515 34.1206 34.1883C32.9522 35.0251 32.0319 36.1623 31.457 37.4794H35.5625V40.6669H26V31.1044H29.1875Z" fill="white"/>
</g>
<defs>
<clipPath id="clip0_2535_14712">
<rect width="51" height="51" fill="white" transform="translate(0.5 0.824219)"/>
</clipPath>
</defs>
</svg>
