<svg width="49" height="49" viewBox="0 0 49 49" fill="none" xmlns="http://www.w3.org/2000/svg">
<g clip-path="url(#clip0_2535_14707)">
<path d="M33.5 21.8242C33.5 26.8042 29.48 30.8242 24.5 30.8242C19.52 30.8242 15.5 26.8042 15.5 21.8242C15.5 16.8442 19.52 12.8242 24.5 12.8242C29.48 12.8242 33.5 16.8442 33.5 21.8242Z" fill="white"/>
<path fill-rule="evenodd" clip-rule="evenodd" d="M48.5 24.8242C48.5 38.0842 37.76 48.8242 24.5 48.8242C11.24 48.8242 0.5 38.0842 0.5 24.8242C0.5 11.5642 11.24 0.824219 24.5 0.824219C37.76 0.824219 48.5 11.5642 48.5 24.8242ZM12.5 42.0742C12.98 41.2762 17.63 33.8242 24.47 33.8242C31.28 33.8242 35.96 41.2942 36.44 42.0742C39.2296 40.1452 41.5089 37.5674 43.0819 34.5626C44.6548 31.5578 45.4744 28.2158 45.47 24.8242C45.47 13.2142 36.08 3.82422 24.47 3.82422C12.86 3.82422 3.47 13.2142 3.47 24.8242C3.47 31.9642 7.04 38.2942 12.5 42.0742Z" fill="white"/>
</g>
<defs>
<clipPath id="clip0_2535_14707">
<rect width="48" height="48" fill="white" transform="translate(0.5 0.824219)"/>
</clipPath>
</defs>
</svg>
