<svg width="149" height="39" viewBox="0 0 149 39" fill="none" xmlns="http://www.w3.org/2000/svg">
<path d="M51.8157 29.2206C51.8157 29.4712 51.8157 29.7218 51.8157 29.9709C51.8208 30.0396 51.8067 30.1083 51.7753 30.1694C51.7437 30.2306 51.6959 30.2819 51.6371 30.3176C50.6452 30.9794 48.9073 31.068 47.9334 30.0535C47.216 29.3032 47.0539 28.4102 47.3496 27.4467C47.6377 26.5058 48.3221 25.961 49.2795 25.7764C49.9812 25.6151 50.7178 25.7222 51.3445 26.0766C51.9238 26.4187 51.9253 26.4833 51.4481 26.9395C51.3265 27.0565 51.2515 27.0475 51.1254 26.9395C50.7602 26.6368 50.2937 26.4839 49.8202 26.5117C49.3467 26.5396 48.9014 26.7461 48.5742 27.0896C48.0909 27.6088 48.0234 28.2316 48.2455 28.8769C48.4676 29.5223 48.9553 29.8824 49.6277 29.9799C49.9972 30.0348 50.3747 29.9908 50.7217 29.8524C50.792 29.8326 50.8529 29.7886 50.8939 29.7282C50.9348 29.6678 50.953 29.5948 50.9453 29.5223C50.9363 29.1741 50.9453 28.8259 50.9453 28.4792C50.9378 28.2766 50.9979 28.1791 51.217 28.1896C51.9103 28.2046 51.8082 28.1205 51.8172 28.7809C51.8188 28.9294 51.8172 29.075 51.8157 29.2206Z" fill="white"/>
<path d="M67.1956 28.271C67.1956 27.5597 67.2032 26.8499 67.1956 26.14C67.1956 25.9059 67.2525 25.8054 67.5066 25.8129C68.2102 25.8339 68.1141 25.7333 68.1173 26.4132C68.1173 27.4862 68.1173 28.5607 68.1173 29.6337C68.1173 29.8633 68.1875 29.9458 68.4176 29.9414C69.0699 29.9293 69.7242 29.9414 70.3785 29.9338C70.6022 29.9338 70.6971 29.9924 70.6907 30.234C70.6819 30.7157 70.6907 30.7172 70.2015 30.7172C69.3013 30.7172 68.4005 30.7172 67.4896 30.7172C67.2677 30.7172 67.1899 30.6422 67.1899 30.4171C67.202 29.7073 67.1956 28.9884 67.1956 28.271Z" fill="white"/>
<path d="M144.591 28.2638C144.591 27.5449 144.591 26.826 144.591 26.1087C144.591 25.8881 144.662 25.8086 144.884 25.8086C145.616 25.8265 145.507 25.72 145.511 26.4404C145.511 27.4744 145.511 28.5069 145.511 29.5394C145.511 29.9326 145.511 29.9326 145.915 29.9341C146.545 29.9341 147.174 29.9341 147.804 29.9341C148.015 29.9341 148.087 30.0061 148.085 30.2162C148.085 30.7159 148.085 30.7159 147.588 30.7159H144.923C144.602 30.7159 144.593 30.7069 144.593 30.3933C144.591 29.6839 144.591 28.9741 144.591 28.2638Z" fill="white"/>
<path d="M89.4831 14.5277C89.3017 14.8278 89.1183 15.1279 88.9382 15.4371C87.8654 17.238 86.7952 19.0353 85.7269 20.8292C85.6934 20.9054 85.6365 20.9689 85.5644 21.0105C85.4924 21.0521 85.4089 21.0695 85.3261 21.0603C85.0107 21.0423 84.6959 21.0468 84.3804 21.0603C84.3134 21.0673 84.2464 21.0531 84.1876 21.0197C84.1295 20.9863 84.0827 20.9354 84.0549 20.8742C82.8614 18.9052 81.6641 16.9388 80.4637 14.9748C80.4068 14.8818 80.348 14.7903 80.2791 14.6822C80.2348 14.7698 80.2209 14.8694 80.2386 14.9659C80.2386 17.375 80.2386 19.7832 80.2386 22.1903C80.2386 22.4035 80.195 22.4815 79.9636 22.477C79.164 22.4605 78.3643 22.4665 77.5628 22.477C77.3813 22.477 77.3105 22.4409 77.3105 22.2399C77.3169 17.9168 77.3169 13.5932 77.3105 9.26912C77.3105 9.08599 77.363 9.03498 77.5432 9.03801C78.2303 9.04699 78.9181 9.04996 79.604 9.03801C79.6937 9.02764 79.7841 9.04566 79.8638 9.08953C79.9428 9.1334 80.006 9.20092 80.0452 9.28259C81.6148 11.9019 83.1907 14.5166 84.7736 17.1269C84.8141 17.1959 84.8577 17.2619 84.9013 17.3295C85.0031 17.2815 85.0271 17.1884 85.0726 17.1149C86.6239 14.5056 88.1745 11.8938 89.7246 9.27962C89.76 9.20111 89.8194 9.13562 89.894 9.09231C89.9686 9.04901 90.0545 9.02998 90.1405 9.03801C90.8188 9.05198 91.4977 9.05198 92.1766 9.03801C92.3853 9.03801 92.4529 9.08302 92.4516 9.30364C92.4409 10.3226 92.4516 11.3401 92.4516 12.3591C92.4516 15.0264 92.4548 17.6932 92.4617 20.3594C92.4617 20.9897 92.4712 21.62 92.4813 22.2504C92.4813 22.4004 92.4542 22.4815 92.2715 22.4785C91.4307 22.4695 90.5906 22.4695 89.7499 22.4785C89.5716 22.4785 89.5355 22.4124 89.54 22.2534C89.5488 21.8496 89.54 21.4445 89.54 21.0408L89.5311 14.7617V14.5487L89.4831 14.5277Z" fill="white"/>
<path d="M143.608 14.5241C143.555 14.6082 143.501 14.6937 143.458 14.7792C142.266 16.7767 141.07 18.7726 139.887 20.7821C139.844 20.8796 139.771 20.9604 139.677 21.0119C139.584 21.0634 139.476 21.0829 139.371 21.0673C139.089 21.0515 138.806 21.0515 138.523 21.0673C138.453 21.0752 138.382 21.0609 138.32 21.0266C138.257 20.9921 138.208 20.9392 138.177 20.8752C136.985 18.9062 135.788 16.9397 134.585 14.9758C134.531 14.8873 134.474 14.7987 134.407 14.6937C134.362 14.7729 134.347 14.8656 134.365 14.9548C134.365 17.3635 134.365 19.7721 134.365 22.1808C134.365 22.4314 134.297 22.4809 134.057 22.4809C133.282 22.4639 132.506 22.4639 131.729 22.4809C131.494 22.4809 131.429 22.4179 131.429 22.1808C131.437 18.423 131.437 14.6647 131.429 10.9059C131.429 10.3641 131.429 9.82385 131.429 9.2821C131.429 9.09751 131.473 9.02994 131.671 9.03297C132.366 9.04498 133.061 9.04644 133.755 9.03297C133.838 9.02532 133.92 9.04328 133.991 9.08437C134.063 9.12552 134.12 9.18772 134.155 9.26257C135.728 11.8798 137.304 14.4946 138.885 17.1068C138.918 17.1973 138.98 17.2746 139.06 17.3274C139.221 17.0573 139.383 16.7902 139.544 16.5216C140.98 14.1054 142.415 11.6877 143.846 9.26857C143.884 9.18987 143.946 9.12514 144.023 9.08367C144.1 9.04214 144.188 9.02596 144.274 9.03746C144.96 9.05099 145.647 9.04947 146.334 9.03746C146.533 9.03746 146.576 9.102 146.576 9.28659C146.576 10.3131 146.576 11.3396 146.576 12.3646C146.576 15.0328 146.579 17.7002 146.585 20.3664C146.585 20.9877 146.593 21.6105 146.608 22.2319C146.608 22.4179 146.56 22.4809 146.365 22.4795C145.548 22.4675 144.732 22.4675 143.915 22.4795C143.71 22.4795 143.662 22.4194 143.663 22.2213C143.663 19.7481 143.663 17.2749 143.663 14.8017V14.5451L143.608 14.5241Z" fill="white"/>
<path d="M60.3226 14.3238C60.1057 13.0462 59.477 11.8746 58.5323 10.9877C57.0691 9.61454 55.2772 9.07576 53.3203 9.04574C51.2913 9.01426 49.2683 9.04574 47.2348 9.03373C47.0202 9.03373 46.9662 9.08929 46.9662 9.30239C46.9752 11.4514 46.9662 13.602 46.9662 15.7555C46.9662 17.909 46.9662 20.0235 46.9662 22.1576C46.9662 22.5163 46.9256 22.4742 47.2948 22.4742C49.2263 22.4742 51.1577 22.4742 53.0892 22.4742C53.8994 22.4832 54.7071 22.3822 55.4903 22.1741C57.4142 21.6503 58.9284 20.5908 59.8094 18.7539C60.4877 17.3388 60.6018 15.8485 60.3226 14.3238ZM55.828 19.0181C55.0607 19.5986 54.1232 19.9094 53.1612 19.902C52.2067 19.9215 51.2537 19.902 50.2993 19.911C50.1147 19.911 50.0712 19.8525 50.0712 19.6754C50.0772 17.0661 50.0772 14.4559 50.0712 11.8446C50.0712 11.66 50.1132 11.591 50.3113 11.5955C50.82 11.609 51.3288 11.5955 51.9261 11.5955C52.6044 11.6135 53.3728 11.5414 54.1321 11.7126C56.2406 12.1868 57.3317 13.767 57.2942 15.8516C57.2717 17.1167 56.8575 18.2182 55.828 19.0181Z" fill="white"/>
<path d="M114.512 14.7575C114.328 13.2838 113.73 11.9962 112.635 10.9727C111.175 9.61001 109.389 9.07573 107.441 9.04576C105.413 9.01422 103.389 9.04576 101.356 9.03375C101.145 9.03375 101.084 9.08173 101.085 9.29938C101.094 11.4499 101.085 13.599 101.085 15.7525C101.085 17.906 101.085 20.0521 101.085 22.2056C101.085 22.4337 101.153 22.4832 101.369 22.4832C103.317 22.4742 105.264 22.4742 107.211 22.4832C108.021 22.4914 108.829 22.3905 109.613 22.1831C111.491 21.6714 112.981 20.6479 113.88 18.8725C114.533 17.5669 114.691 16.1817 114.512 14.7575ZM111.409 16.0811C111.335 17.2712 110.902 18.2992 109.927 19.0391C109.146 19.6157 108.197 19.9199 107.226 19.905C106.305 19.917 105.384 19.905 104.462 19.9125C104.253 19.9125 104.188 19.866 104.19 19.6469C104.201 18.3457 104.19 17.0446 104.19 15.745C104.19 14.4453 104.19 13.1577 104.19 11.8656C104.19 11.6465 104.253 11.5954 104.462 11.5985C105.384 11.609 106.305 11.5865 107.225 11.6075C108.541 11.6375 109.709 12.0382 110.562 13.0977C111.259 13.9666 111.47 14.9931 111.409 16.0811Z" fill="white"/>
<path d="M75.8624 22.3162C73.9084 17.9471 71.9576 13.5775 70.0094 9.20744C69.991 9.1513 69.9537 9.10358 69.9032 9.07254C69.8532 9.0415 69.7932 9.02923 69.735 9.03783C68.8469 9.03783 67.9581 9.03783 67.0699 9.03783C66.9997 9.02961 66.9283 9.04649 66.8695 9.0855C66.8107 9.1245 66.7671 9.1831 66.7469 9.25093C66.2652 10.351 65.7715 11.4495 65.2822 12.5525C63.8447 15.7821 62.4053 19.0111 60.9647 22.2397C60.8838 22.4183 60.8793 22.4858 61.1151 22.4843C62.0286 22.4738 62.9414 22.4753 63.8536 22.4843C63.9199 22.4933 63.9876 22.4774 64.0426 22.4398C64.0982 22.4021 64.138 22.3453 64.1538 22.2802C64.4857 21.4563 64.8321 20.6399 65.1653 19.8176C65.1817 19.7523 65.2209 19.6952 65.2759 19.6569C65.3315 19.6185 65.3985 19.6015 65.4655 19.609C67.3974 19.615 69.3286 19.615 71.2585 19.609C71.3242 19.6016 71.3912 19.6181 71.4462 19.6556C71.5012 19.693 71.5411 19.7489 71.5581 19.813C71.8224 20.4734 72.0954 21.1277 72.3717 21.782C72.4678 22.0116 72.4905 22.3327 72.6884 22.4408C72.8863 22.5489 73.1745 22.4798 73.4236 22.4798C74.2479 22.4798 75.0747 22.4798 75.9237 22.4798C75.8896 22.3958 75.8788 22.3523 75.8624 22.3162ZM70.2635 17.2393C68.9954 17.2303 67.7273 17.2393 66.4586 17.2393C66.3177 17.2393 66.2456 17.2303 66.3177 17.0577C66.9865 15.4569 67.6502 13.8561 68.3108 12.2554C68.331 12.2228 68.3538 12.1922 68.3797 12.1638C68.6604 12.8436 68.929 13.4905 69.1977 14.1388C69.5953 15.1008 69.9917 16.0627 70.3981 17.0232C70.4569 17.1643 70.481 17.2408 70.2635 17.2393Z" fill="white"/>
<path d="M129.402 21.0207C127.658 17.1188 125.915 13.213 124.172 9.3031C124.144 9.21391 124.086 9.13755 124.007 9.08773C123.928 9.03792 123.833 9.01794 123.741 9.03147C122.893 9.04494 122.044 9.04196 121.19 9.03147C121.116 9.02167 121.041 9.03868 120.979 9.07939C120.916 9.12016 120.87 9.18192 120.849 9.25354C120.24 10.6432 119.619 12.0269 119.001 13.4135C117.693 16.347 116.386 19.2814 115.081 22.2168C114.971 22.4644 114.973 22.466 115.231 22.466C116.143 22.466 117.056 22.466 117.968 22.466C118.031 22.4739 118.094 22.4587 118.147 22.4234C118.199 22.3881 118.237 22.335 118.253 22.2738C118.586 21.4514 118.933 20.6336 119.264 19.8111C119.281 19.7419 119.322 19.6811 119.381 19.6404C119.439 19.5998 119.511 19.582 119.581 19.5905C121.503 19.5965 123.426 19.5965 125.349 19.5905C125.419 19.5828 125.49 19.6001 125.548 19.6393C125.607 19.6786 125.65 19.7373 125.67 19.8051C125.983 20.5915 126.321 21.3704 126.633 22.1583C126.655 22.2576 126.713 22.345 126.797 22.4029C126.88 22.4608 126.983 22.4849 127.083 22.4704C127.972 22.4495 128.86 22.4629 129.748 22.4614C129.843 22.4774 129.939 22.4654 130.027 22.4269L129.402 21.0207ZM124.345 17.2344C123.1 17.2284 121.856 17.2284 120.614 17.2344C120.438 17.2344 120.362 17.2239 120.449 17.0153C121.103 15.453 121.748 13.8863 122.4 12.321C122.419 12.2745 122.417 12.2055 122.512 12.183L123.219 13.8938C123.649 14.9308 124.074 15.9678 124.512 17.0003C124.598 17.2074 124.544 17.2359 124.345 17.2344Z" fill="white"/>
<path d="M109.316 28.2557C109.186 28.1896 109.165 28.1476 109.288 28.0395C109.448 27.9113 109.573 27.7437 109.649 27.5531C109.726 27.3626 109.751 27.1555 109.724 26.952C109.697 26.7486 109.617 26.5556 109.493 26.392C109.369 26.2283 109.205 26.0996 109.017 26.0181C108.73 25.885 108.417 25.8173 108.101 25.82C107.366 25.811 106.63 25.82 105.895 25.8125C105.674 25.8125 105.595 25.883 105.595 26.1126C105.605 26.8314 105.595 27.5503 105.595 28.2692C105.595 28.988 105.595 29.7084 105.595 30.4272C105.595 30.6448 105.661 30.7273 105.886 30.7273C106.695 30.7169 107.503 30.7273 108.311 30.7273C108.586 30.7237 108.858 30.673 109.116 30.5773C109.602 30.4047 109.903 30.0716 109.951 29.5508C110.006 28.9805 109.839 28.5228 109.316 28.2557ZM106.522 26.7459C106.522 26.5959 106.59 26.5419 106.729 26.5433C107.18 26.5433 107.619 26.5433 108.064 26.5433C108.193 26.5499 108.32 26.5853 108.434 26.6469C108.554 26.6917 108.654 26.7752 108.721 26.884C108.786 26.9928 108.814 27.1207 108.799 27.2472C108.795 27.3738 108.75 27.4957 108.671 27.5941C108.59 27.6926 108.481 27.762 108.358 27.7919C108.042 27.8955 107.717 27.8415 107.457 27.8565C107.172 27.8565 106.954 27.8565 106.736 27.8565C106.585 27.8565 106.515 27.7934 106.516 27.6389C106.525 27.3462 106.524 27.0461 106.522 26.7459ZM108.434 29.95C108.372 29.967 108.308 29.9776 108.243 29.9815C107.984 29.9815 107.726 29.9815 107.468 29.9815V29.989C107.225 29.989 106.983 29.989 106.74 29.989C106.59 29.989 106.52 29.9275 106.521 29.7729C106.521 29.4413 106.521 29.1111 106.521 28.7794C106.521 28.6518 106.573 28.5783 106.707 28.5828C107.271 28.5978 107.838 28.5348 108.4 28.6264C108.817 28.6954 109.032 28.9115 109.041 29.2612C109.053 29.6378 108.857 29.863 108.434 29.9485V29.95Z" fill="white"/>
<path d="M87.8082 25.7227C86.2525 25.7227 85.1343 26.7912 85.1387 28.2739C85.1387 29.7281 86.2569 30.8086 87.7513 30.8116C89.3108 30.8116 90.4196 29.7611 90.4215 28.2934C90.4215 26.7867 89.3481 25.7242 87.8082 25.7227ZM87.7861 29.9952C87.3404 29.9779 86.9194 29.789 86.6097 29.4682C86.3006 29.1473 86.1274 28.7194 86.1261 28.2737C86.1248 27.828 86.2961 27.3992 86.604 27.0767C86.9112 26.7543 87.3316 26.5633 87.7773 26.5436C88.7899 26.5436 89.4998 27.2519 89.5011 28.2664C89.503 29.2809 88.7963 29.9937 87.7861 29.9952Z" fill="white"/>
<path d="M129.647 30.3625C129.056 29.062 128.467 27.7613 127.882 26.4607C127.592 25.8153 127.598 25.8184 126.927 25.8184C126.852 25.8101 126.776 25.828 126.713 25.869C126.649 25.9099 126.601 25.9716 126.578 26.0435C126.258 26.7683 125.925 27.4872 125.601 28.2075C125.256 28.9729 124.915 29.7413 124.567 30.5052C124.495 30.6552 124.511 30.7287 124.697 30.7212C124.85 30.71 125.004 30.71 125.157 30.7212C125.241 30.7351 125.327 30.716 125.398 30.668C125.469 30.6199 125.518 30.5466 125.537 30.4631C125.618 30.2515 125.721 30.0504 125.798 29.8373C125.819 29.7599 125.867 29.6927 125.934 29.6485C126.001 29.6043 126.081 29.586 126.161 29.5972C126.654 29.6092 127.147 29.5972 127.639 29.5972C128.509 29.6092 128.28 29.4621 128.639 30.268C128.835 30.7092 128.826 30.7182 129.306 30.7182H129.426C129.811 30.7138 129.806 30.7138 129.647 30.3625ZM127.882 28.8618C127.383 28.8618 126.884 28.8618 126.381 28.8618C126.269 28.8618 126.239 28.8123 126.284 28.7118L127.09 26.8284H127.166L127.986 28.7283C128.023 28.8318 127.974 28.8694 127.882 28.8694V28.8618Z" fill="white"/>
<path d="M0 31.5217C0 30.5117 0 29.6563 0 28.7994C0 28.6057 0.0465192 28.5322 0.25512 28.5352C0.955458 28.5473 1.6583 28.5473 2.36364 28.5352C2.56023 28.5352 2.60525 28.5968 2.60525 28.7829C2.60525 30.3016 2.60525 31.8203 2.60525 33.339C2.60525 34.9763 3.77732 36.1454 5.41759 36.1469C6.82379 36.1469 8.22999 36.1469 9.63468 36.1469C9.83722 36.1469 9.89575 36.2024 9.89127 36.4035C9.88077 37.1149 9.88374 37.8247 9.89127 38.5361C9.89127 38.6861 9.85075 38.7522 9.68715 38.7507C8.11292 38.7342 6.53566 38.7912 4.96289 38.7236C2.35013 38.6126 0.160577 36.4065 0.0270114 33.7952C-0.0195079 32.9834 0.0165052 32.176 0 31.5217Z" fill="white"/>
<path d="M33.332 0.0181381C34.0674 0.0181381 34.8027 -0.00588327 35.5381 0.0181381C38.1628 0.115678 40.4904 2.22571 40.8642 4.82046C40.9142 5.17238 40.9388 5.52745 40.9377 5.88297C40.9377 7.12702 40.9377 8.37114 40.9377 9.61526C40.9377 9.82387 40.8882 9.89739 40.6691 9.8929C39.9742 9.87937 39.2779 9.88089 38.5831 9.8929C38.3759 9.8929 38.3294 9.82684 38.3309 9.63024C38.34 8.36217 38.3309 7.09251 38.3309 5.82443C38.3309 3.96953 36.9547 2.59633 35.0954 2.59488C33.7297 2.59488 32.3641 2.59488 30.9984 2.59488C30.8033 2.59488 30.7298 2.54987 30.7328 2.34126C30.7448 1.63737 30.7432 0.935061 30.7328 0.231233C30.7328 0.049619 30.7898 -0.00291147 30.9699 0.000122815C31.7533 0.0075821 32.5366 0.000122815 33.3215 0.000122815L33.332 0.0181381Z" fill="white"/>
<path d="M37.6328 13.3569C36.5988 9.34999 34.2412 6.21494 30.8991 3.81533C28.7036 2.2339 26.1144 1.28878 23.4164 1.08397C21.9983 0.965441 20.5756 0.995467 19.1544 0.972962C17.5036 0.945907 15.8528 0.972962 14.202 0.972962V0.990915H6.18664C5.903 0.990915 5.62088 0.990915 5.33723 0.990915C4.98905 0.990915 4.97559 1.01197 4.97559 1.36015C4.98905 7.47708 4.96357 13.594 4.99208 19.711C5.01307 24.4308 4.99208 29.1505 4.99208 33.8688C4.99208 34.196 4.99208 34.1945 5.32371 34.196C6.34873 34.196 7.3752 34.2109 8.40174 34.208C12.9039 34.199 17.4196 34.238 21.9278 34.1764C23.7645 34.1618 25.5857 33.8386 27.3154 33.2205C30.2793 32.149 32.688 30.3061 34.5968 27.8284C37.9315 23.4943 39 18.653 37.6328 13.3569ZM31.0012 26.3757C28.9121 28.6688 26.2723 29.9774 23.1973 30.4082C22.6774 30.4824 22.1529 30.52 21.6276 30.5207H8.9285C8.60579 30.5207 8.60579 30.5207 8.60579 30.1936V17.592H8.62229V4.96039C8.62229 4.63471 8.62235 4.63471 8.951 4.63471C13.121 4.63471 17.2905 4.63471 21.4595 4.63471C27.9592 4.63471 33.0046 9.24044 34.1902 14.7796C35.1281 19.1662 34.0191 23.0666 31.0012 26.3757Z" fill="white"/>
<path d="M12.3442 20.1888C12.3442 18.2573 12.3712 16.3244 12.3352 14.393C12.3037 12.6641 12.3127 10.9413 12.3052 9.20651C12.3052 8.44408 12.3937 8.35558 13.1441 8.35558C15.9954 8.35558 18.8348 8.34654 21.6787 8.35558C23.7781 8.35552 25.8093 9.09993 27.4115 10.4566C27.4985 10.5286 27.5781 10.6066 27.6591 10.6892C27.7771 10.7898 27.859 10.9262 27.8923 11.0776C27.9256 11.229 27.9085 11.3873 27.8437 11.5281C27.7869 11.6722 27.6862 11.7949 27.5558 11.8787C27.4255 11.9625 27.272 12.0031 27.1173 11.9948C25.0163 11.9948 22.9153 11.9948 20.8143 11.9948H16.3526C16.0525 11.9948 16.036 12.0068 16.036 12.307C16.036 15.7997 16.036 19.2913 16.036 22.782C16.036 23.0822 16.051 23.0987 16.3511 23.0987C18.2255 23.0987 20.1029 23.1197 21.9758 23.0912C23.1539 23.0747 24.1609 22.5689 25.0673 21.8456C25.7598 21.3067 26.2951 20.5921 26.6176 19.7761C26.7286 19.4894 26.7076 19.4579 26.3985 19.4579H20.1164C19.7263 19.4579 19.7232 19.4579 19.7232 19.0662C19.7232 18.0712 19.7232 17.0778 19.7232 16.0843C19.7232 15.8592 19.7863 15.7707 20.0234 15.7707C23.449 15.7766 26.8757 15.7766 30.3033 15.7707C30.5224 15.7707 30.614 15.8367 30.65 16.0618C31.0952 18.8631 30.4064 21.3483 28.5835 23.5174C27.1128 25.2612 25.2054 26.2652 22.9723 26.6689C22.5669 26.7413 22.1565 26.783 21.7447 26.7935C18.9324 26.8655 16.1215 26.8145 13.3091 26.8295C13.0916 26.8295 12.8725 26.801 12.6563 26.801C12.3862 26.801 12.3412 26.6809 12.3412 26.4453C12.3472 24.3593 12.3442 22.2733 12.3442 20.1888Z" fill="white"/>
</svg>
