<svg width="40" height="40" viewBox="0 0 40 40" fill="none" xmlns="http://www.w3.org/2000/svg">
<path d="M37.7775 36.089L29.5887 27.889C32.206 24.835 33.5387 20.8859 33.307 16.8704C33.0753 12.855 31.2973 9.08537 28.346 6.35264C25.3948 3.61992 21.4998 2.13654 17.4784 2.21381C13.457 2.29108 9.62187 3.92298 6.7778 6.76706C3.93372 9.61113 2.30182 13.4463 2.22455 17.4677C2.14729 21.4891 3.63066 25.3841 6.36338 28.3353C9.09611 31.2865 12.8657 33.0645 16.8812 33.2962C20.8966 33.5279 24.8457 32.1953 27.8998 29.5779L36.0887 37.7779L37.7775 36.089ZM17.7775 30.9446C15.1734 30.9446 12.6278 30.1724 10.4625 28.7256C8.29729 27.2788 6.60969 25.2225 5.61313 22.8166C4.61658 20.4107 4.35584 17.7633 4.86388 15.2092C5.37191 12.6551 6.62592 10.3091 8.46731 8.46768C10.3087 6.62629 12.6548 5.37228 15.2089 4.86424C17.7629 4.35621 20.4103 4.61695 22.8162 5.6135C25.2221 6.61006 27.2785 8.29766 28.7252 10.4629C30.172 12.6282 30.9442 15.1738 30.9442 17.7779C30.9413 21.269 29.5531 24.6163 27.0845 27.0849C24.6159 29.5535 21.2687 30.9416 17.7775 30.9446Z" fill="#31A5DE"/>
<path d="M17.1333 10.078L10 14.7447L11.3 16.7558L17.7778 12.5113L24.3111 16.7558L25.6111 14.7447L18.4333 10.078C18.2395 9.95313 18.0139 9.88672 17.7833 9.88672C17.5528 9.88672 17.3271 9.95313 17.1333 10.078Z" fill="#31A5DE"/>
<path d="M21.8556 22.0906C21.8616 22.2519 21.835 22.4127 21.7773 22.5635C21.7197 22.7143 21.6323 22.8519 21.5202 22.968C21.4082 23.0842 21.2739 23.1766 21.1253 23.2397C20.9768 23.3027 20.817 23.3352 20.6556 23.3351H14.9112C14.5929 23.3351 14.2877 23.2086 14.0626 22.9836C13.8376 22.7586 13.7112 22.4533 13.7112 22.1351V18.8906H11.3223V22.124C11.3252 23.0749 11.7043 23.986 12.3767 24.6584C13.0491 25.3309 13.9602 25.7099 14.9112 25.7128H20.6556C21.6065 25.7099 22.5177 25.3309 23.1901 24.6584C23.8625 23.986 24.2416 23.0749 24.2445 22.124V18.8906H21.8556V22.0906Z" fill="#31A5DE"/>
</svg>
